<mxfile host="app.diagrams.net" agent="Mozilla/5.0 (Windows NT 10.0; Win64; x64) AppleWebKit/537.36 (KHTML, like Gecko) Chrome/131.0.0.0 Safari/537.36" version="24.8.8">
  <diagram name="Page-1" id="SlMwfDkxdvo32fapTYEo">
    <mxGraphModel grid="0" page="1" gridSize="10" guides="1" tooltips="1" connect="1" arrows="1" fold="1" pageScale="1" pageWidth="850" pageHeight="1100" background="none" math="0" shadow="0">
      <root>
        <mxCell id="0" />
        <mxCell id="1" parent="0" />
        <mxCell id="wRr7XhDHNog7GqjkIobH-5" value="Microservice" style="shape=ellipse;fillColor=#A56EFF;aspect=fixed;resizable=1;labelPosition=center;verticalLabelPosition=bottom;align=center;verticalAlign=top;strokeColor=none;fontSize=14;" vertex="1" parent="1">
          <mxGeometry x="330" y="510" width="50" height="50" as="geometry" />
        </mxCell>
        <mxCell id="wRr7XhDHNog7GqjkIobH-6" value="" style="fillColor=#ffffff;strokeColor=none;dashed=0;outlineConnect=0;html=1;labelPosition=center;verticalLabelPosition=bottom;verticalAlign=top;part=1;movable=0;resizable=1;rotatable=0;shape=mxgraph.ibm_cloud.microservices--1" vertex="1" parent="wRr7XhDHNog7GqjkIobH-5">
          <mxGeometry width="24" height="24" relative="1" as="geometry">
            <mxPoint x="12" y="12" as="offset" />
          </mxGeometry>
        </mxCell>
        <mxCell id="wRr7XhDHNog7GqjkIobH-7" value="" style="shape=image;verticalLabelPosition=bottom;labelBackgroundColor=default;verticalAlign=top;aspect=fixed;imageAspect=0;image=https://static.thenounproject.com/png/7392362-512.png;" vertex="1" parent="1">
          <mxGeometry x="140" y="536" width="52" height="52" as="geometry" />
        </mxCell>
        <mxCell id="wRr7XhDHNog7GqjkIobH-18" value="" style="edgeStyle=elbowEdgeStyle;elbow=horizontal;endArrow=classic;html=1;curved=0;rounded=0;endSize=8;startSize=8;" edge="1" parent="1" target="wRr7XhDHNog7GqjkIobH-17">
          <mxGeometry width="50" height="50" relative="1" as="geometry">
            <mxPoint x="198" y="560" as="sourcePoint" />
            <mxPoint x="358" y="560" as="targetPoint" />
          </mxGeometry>
        </mxCell>
        <mxCell id="wRr7XhDHNog7GqjkIobH-26" style="edgeStyle=orthogonalEdgeStyle;rounded=0;orthogonalLoop=1;jettySize=auto;html=1;entryX=0;entryY=0.5;entryDx=0;entryDy=0;" edge="1" parent="1" source="wRr7XhDHNog7GqjkIobH-17" target="wRr7XhDHNog7GqjkIobH-24">
          <mxGeometry relative="1" as="geometry">
            <mxPoint x="280" y="700" as="targetPoint" />
            <Array as="points">
              <mxPoint x="280" y="560" />
              <mxPoint x="280" y="684" />
            </Array>
          </mxGeometry>
        </mxCell>
        <mxCell id="wRr7XhDHNog7GqjkIobH-27" style="edgeStyle=orthogonalEdgeStyle;rounded=0;orthogonalLoop=1;jettySize=auto;html=1;entryX=0;entryY=0.5;entryDx=0;entryDy=0;" edge="1" parent="1" source="wRr7XhDHNog7GqjkIobH-17" target="wRr7XhDHNog7GqjkIobH-5">
          <mxGeometry relative="1" as="geometry" />
        </mxCell>
        <mxCell id="wRr7XhDHNog7GqjkIobH-28" style="edgeStyle=orthogonalEdgeStyle;rounded=0;orthogonalLoop=1;jettySize=auto;html=1;entryX=0;entryY=0.5;entryDx=0;entryDy=0;" edge="1" parent="1" source="wRr7XhDHNog7GqjkIobH-17" target="wRr7XhDHNog7GqjkIobH-20">
          <mxGeometry relative="1" as="geometry">
            <Array as="points">
              <mxPoint x="280" y="560" />
              <mxPoint x="280" y="609" />
            </Array>
          </mxGeometry>
        </mxCell>
        <mxCell id="wRr7XhDHNog7GqjkIobH-17" value="" style="sketch=0;outlineConnect=0;fontColor=#232F3E;gradientColor=none;fillColor=#232F3D;strokeColor=none;dashed=0;verticalLabelPosition=bottom;verticalAlign=top;align=center;html=1;fontSize=12;fontStyle=0;aspect=fixed;pointerEvents=1;shape=mxgraph.aws4.documents;" vertex="1" parent="1">
          <mxGeometry x="190" y="536" width="40" height="48.75" as="geometry" />
        </mxCell>
        <mxCell id="wRr7XhDHNog7GqjkIobH-19" value="WAL" style="text;html=1;align=center;verticalAlign=middle;resizable=0;points=[];autosize=1;strokeColor=none;fillColor=none;fontStyle=1" vertex="1" parent="1">
          <mxGeometry x="180" y="510" width="50" height="30" as="geometry" />
        </mxCell>
        <mxCell id="wRr7XhDHNog7GqjkIobH-20" value="Microservice" style="shape=ellipse;fillColor=#A56EFF;aspect=fixed;resizable=0;labelPosition=center;verticalLabelPosition=bottom;align=center;verticalAlign=top;strokeColor=none;fontSize=14;" vertex="1" parent="1">
          <mxGeometry x="332" y="584.75" width="48" height="48" as="geometry" />
        </mxCell>
        <mxCell id="wRr7XhDHNog7GqjkIobH-21" value="" style="fillColor=#ffffff;strokeColor=none;dashed=0;outlineConnect=0;html=1;labelPosition=center;verticalLabelPosition=bottom;verticalAlign=top;part=1;movable=0;resizable=0;rotatable=0;shape=mxgraph.ibm_cloud.microservices--1" vertex="1" parent="wRr7XhDHNog7GqjkIobH-20">
          <mxGeometry width="24" height="24" relative="1" as="geometry">
            <mxPoint x="12" y="12" as="offset" />
          </mxGeometry>
        </mxCell>
        <mxCell id="wRr7XhDHNog7GqjkIobH-24" value="Microservice" style="shape=ellipse;fillColor=#A56EFF;aspect=fixed;resizable=0;labelPosition=center;verticalLabelPosition=bottom;align=center;verticalAlign=top;strokeColor=none;fontSize=14;" vertex="1" parent="1">
          <mxGeometry x="332" y="660" width="48" height="48" as="geometry" />
        </mxCell>
        <mxCell id="wRr7XhDHNog7GqjkIobH-25" value="" style="fillColor=#ffffff;strokeColor=none;dashed=0;outlineConnect=0;html=1;labelPosition=center;verticalLabelPosition=bottom;verticalAlign=top;part=1;movable=0;resizable=0;rotatable=0;shape=mxgraph.ibm_cloud.microservices--1" vertex="1" parent="wRr7XhDHNog7GqjkIobH-24">
          <mxGeometry width="24" height="24" relative="1" as="geometry">
            <mxPoint x="12" y="12" as="offset" />
          </mxGeometry>
        </mxCell>
        <mxCell id="wRr7XhDHNog7GqjkIobH-29" value="" style="shape=ellipse;html=1;dashed=0;whiteSpace=wrap;aspect=fixed;perimeter=ellipsePerimeter;fillColor=#d5e8d4;strokeColor=#82b366;" vertex="1" parent="1">
          <mxGeometry x="290" y="530" width="10" height="10" as="geometry" />
        </mxCell>
        <mxCell id="wRr7XhDHNog7GqjkIobH-34" value="" style="shape=mxgraph.mockup.markup.redX;fillColor=#ff0000;html=1;shadow=0;whiteSpace=wrap;strokeColor=none;" vertex="1" parent="1">
          <mxGeometry x="290" y="605" width="10" height="8" as="geometry" />
        </mxCell>
        <mxCell id="wRr7XhDHNog7GqjkIobH-35" value="" style="shape=mxgraph.mockup.markup.redX;fillColor=#ff0000;html=1;shadow=0;whiteSpace=wrap;strokeColor=none;" vertex="1" parent="1">
          <mxGeometry x="290" y="680" width="10" height="8" as="geometry" />
        </mxCell>
      </root>
    </mxGraphModel>
  </diagram>
</mxfile>
